<?xml version="1.0" encoding="UTF-8" standalone="no"?>
<!DOCTYPE svg PUBLIC "-//W3C//DTD SVG 1.1//EN" "http://www.w3.org/Graphics/SVG/1.1/DTD/svg11.dtd">
<svg width="100px" height="100px" viewBox="0 0 500 500" version="1.1" xmlns="http://www.w3.org/2000/svg" xmlns:xlink="http://www.w3.org/1999/xlink" xml:space="preserve" xmlns:serif="http://www.serif.com/" style="fill-rule:evenodd;clip-rule:evenodd;stroke-linejoin:round;stroke-miterlimit:2;">
    <g transform="matrix(2.15229,0,0,2.15229,-1177.62,-671.468)">
        <g transform="matrix(0.191982,0.107239,-0.191982,0.107239,774.802,271.504)">
            <path d="M911.477,915.165C911.477,899.74 900.813,887.217 887.679,887.217L330.242,887.217C317.107,887.217 306.444,899.74 306.444,915.165L306.444,1464.3C306.444,1479.73 317.107,1492.25 330.242,1492.25L887.679,1492.25C900.813,1492.25 911.477,1479.73 911.477,1464.3L911.477,915.165Z" style="fill:rgb(53,163,246);fill-opacity:0.43;"/>
        </g>
        <g transform="matrix(0.191982,0.107239,-0.191982,0.107239,774.802,239.862)">
            <path d="M911.477,915.165C911.477,899.74 900.813,887.217 887.679,887.217L330.242,887.217C317.107,887.217 306.444,899.74 306.444,915.165L306.444,1464.3C306.444,1479.73 317.107,1492.25 330.242,1492.25L887.679,1492.25C900.813,1492.25 911.477,1479.73 911.477,1464.3L911.477,915.165Z" style="fill:rgb(53,163,246);fill-opacity:0.43;"/>
        </g>
        <g transform="matrix(0.191982,0.107239,-0.191982,0.107239,774.802,198.984)">
            <path d="M911.477,915.165C911.477,899.74 900.813,887.217 887.679,887.217L330.242,887.217C317.107,887.217 306.444,899.74 306.444,915.165L306.444,1464.3C306.444,1479.73 317.107,1492.25 330.242,1492.25L887.679,1492.25C900.813,1492.25 911.477,1479.73 911.477,1464.3L911.477,915.165Z" style="fill:rgb(53,163,246);fill-opacity:0.43;"/>
        </g>
    </g>
</svg>
